<?xml version="1.0" standalone="no"?><svg xmlns="http://www.w3.org/2000/svg" viewBox="0 0 1440 320"><path fill="#B1D446" fill-opacity="1" d="M0,64L30,96C60,128,120,192,180,192C240,192,300,128,360,133.3C420,139,480,213,540,245.3C600,277,660,267,720,224C780,181,840,107,900,117.3C960,128,1020,224,1080,250.7C1140,277,1200,235,1260,186.7C1320,139,1380,85,1410,58.7L1440,32L1440,0L1410,0C1380,0,1320,0,1260,0C1200,0,1140,0,1080,0C1020,0,960,0,900,0C840,0,780,0,720,0C660,0,600,0,540,0C480,0,420,0,360,0C300,0,240,0,180,0C120,0,60,0,30,0L0,0Z"></path></svg>